The City of Your Final Destination (2009) 1080p Eng-NLSubs-DMT

Verenigd Koninkrijk
Drama
114 minuten

geregisseerd door James Ivory
met Anthony Hopkins, Omar Metwally en Laura Linney

De 28 jarige doctoraal student Omar Razaghi (Omar Metwally) heeft een studiebeurs gewonnen
om een biografie te schrijven over de Latijns Amerikaanse schrijver Jules Gund. 
Om toestemming te verkrijgen zal hij eerst langs moeten gaan bij diens weduwe, broer en minnares

PLOT

28-year-old Kansas University doctoral student Omar Razaghi wins a grant to write a biography of
Latin American writer Jules Gund. Omar must get through to three people who were close to Gund--his brother, 
widow, and younger mistress--so he can get authorization to write the biography. 
 
http://www.youtube.com/watch?v=LQf86qx3sMI

MM:    http://www.moviemeter.nl/film/59077

IMDB:    http://www.imdb.com/title/tt0896923/

INFO

Source.......: 1080P BluRay 
FRAME RATE...: 23.976Fps 
VIDEO CODEC..: X264
AUDIO 1......: DTS
AUDIO 2......: AC3
RESOLUTION...: 1920x1080
RUNTIME......: 117 MINS 
GENERE.......: Drama    
LANGUAGE.....: English
SUBTITLES....: English & Dutch

Thanks To Bradje

Enjoy

Player

General
Complete name                    : The.City.of.Your.Final.Destination.2009.1080p.Eng.NLSubs-DMT.mkv
Format                           : Matroska
File size                        : 8.46 GiB
Duration                         : 1h 57mn
Overall bit rate                 : 10.3 Mbps
Movie name                       : The City of Your Final Destination (2009) 1080P.X264.NL.SUBBED.Bradje
Encoded date                     : UTC 2010-11-05 17:44:54
Writing application              : mkvmerge v3.3.0 ('Language') built on Mar 24 2010 14:59:24
Writing library                  : libebml v0.8.0 + libmatroska v0.9.0

Video
ID                               : 1
Format                           : AVC
Format/Info                      : Advanced Video Codec
Format profile                   : High@L4.1
Format settings, CABAC           : Yes
Format settings, ReFrames        : 4 frames
Muxing mode                      : Container profile=Unknown@4.1
Codec ID                         : V_MPEG4/ISO/AVC
Duration                         : 1h 57mn
Bit rate                         : 8 168 Kbps
Width                            : 1 920 pixels
Height                           : 1 080 pixels
Display aspect ratio             : 16:9
Frame rate                       : 23.976 fps
Color space                      : YUV
Chroma subsampling               : 4:2:0
Bit depth                        : 8 bits
Scan type                        : Progressive
Bits/(Pixel*Frame)               : 0.164
Stream size                      : 6.53 GiB (77%)
Title                            : x264
Writing library                  : x264 core 104 r1677 19df41a
Encoding settings                : cabac=1 / ref=4 / deblock=1:-1:-1 / analyse=0x3:0x113 / 
me=umh / subme=7 / psy=1 / psy_rd=1.00:0.00 / mixed_ref=1 / me_range=16 / chroma_me=1 / 
trellis=1 / 8x8dct=1 / cqm=0 / deadzone=21,11 / fast_pskip=1 / chroma_qp_offset=-2 / 
threads=12 / sliced_threads=0 / nr=0 / decimate=1 / interlaced=0 / constrained_intra=0 / 
bframes=3 / b_pyramid=2 / b_adapt=2 / b_bias=0 / direct=3 / weightb=1 / open_gop=0 / 
weightp=2 / keyint=250 / keyint_min=23 / scenecut=40 / intra_refresh=0 / rc_lookahead=40 / 
rc=2pass / mbtree=1 / bitrate=8168 / ratetol=1.0 / qcomp=0.60 / qpmin=10 / qpmax=51 / qpstep=4 / 
cplxblur=20.0 / qblur=0.5 / vbv_maxrate=50000 / vbv_bufsize=50000 / ip_ratio=1.40 / aq=1:1.00 / nal_hrd=none
Language                         : English

Audio #1
ID                               : 2
Format                           : AC-3
Format/Info                      : Audio Coding 3
Mode extension                   : CM (complete main)
Codec ID                         : A_AC3
Duration                         : 1h 57mn
Bit rate mode                    : Constant
Bit rate                         : 640 Kbps
Channel(s)                       : 6 channels
Channel positions                : Front: L C R, Side: L R, LFE
Sampling rate                    : 48.0 KHz
Bit depth                        : 16 bits
Stream size                      : 538 MiB (6%)
Title                            : AC3
Language                         : English

Audio #2
ID                               : 3
Format                           : DTS
Format/Info                      : Digital Theater Systems
Codec ID                         : A_DTS
Duration                         : 1h 57mn
Bit rate mode                    : Constant
Bit rate                         : 1 510 Kbps
Channel(s)                       : 6 channels
Channel positions                : Front: L C R, Side: L R, LFE
Sampling rate                    : 48.0 KHz
Bit depth                        : 24 bits
Stream size                      : 1.24 GiB (15%)
Title                            : DTS
Language                         : English

Text #1
ID                               : 4
Format                           : UTF-8
Codec ID                         : S_TEXT/UTF8
Codec ID/Info                    : UTF-8 Plain Text
Title                            : Subtitles
Language                         : Dutch

Text #2
ID                               : 5
Format                           : UTF-8
Codec ID                         : S_TEXT/UTF8
Codec ID/Info                    : UTF-8 Plain Text
Title                            : Subtitles
Language                         : English

Menu
00:00:00.000                     : en:Video Start
00:05:00.000                     : en:Chapter 1 - 00 Hr 05 Min
00:10:00.000                     : en:Chapter 2 - 00 Hr 10 Min
00:15:00.000                     : en:Chapter 3 - 00 Hr 15 Min
00:20:00.000                     : en:Chapter 4 - 00 Hr 20 Min
00:25:00.000                     : en:Chapter 5 - 00 Hr 25 Min
00:30:00.000                     : en:Chapter 6 - 00 Hr 30 Min
00:35:00.000                     : en:Chapter 7 - 00 Hr 35 Min
00:40:00.000                     : en:Chapter 8 - 00 Hr 40 Min
00:45:00.000                     : en:Chapter 9 - 00 Hr 45 Min
00:50:00.000                     : en:Chapter 10 - 00 Hr 50 Min
00:55:00.000                     : en:Chapter 11 - 00 Hr 55 Min
01:00:00.000                     : en:Chapter 12 - 01 Hr 00 Min
01:05:00.000                     : en:Chapter 13 - 01 Hr 05 Min
01:10:00.000                     : en:Chapter 14 - 01 Hr 10 Min
01:15:00.000                     : en:Chapter 15 - 01 Hr 15 Min
01:20:00.000                     : en:Chapter 16 - 01 Hr 20 Min
01:25:00.000                     : en:Chapter 17 - 01 Hr 25 Min
01:30:00.000                     : en:Chapter 18 - 01 Hr 30 Min
01:35:00.000                     : en:Chapter 19 - 01 Hr 35 Min
01:40:00.000                     : en:Chapter 20 - 01 Hr 40 Min
01:45:00.000                     : en:Chapter 21 - 01 Hr 45 Min
01:50:00.000                     : en:Chapter 22 - 01 Hr 50 Min
01:55:00.000                     : en:Chapter 23 - 01 Hr 55 Min



